<svg width="34" height="34" viewBox="0 0 34 34" fill="none" xmlns="http://www.w3.org/2000/svg">
<path d="M10.1294 29.8917C9.77523 29.5376 9.59814 29.1182 9.59814 28.6337C9.59814 28.1492 9.77523 27.7304 10.1294 27.3772L20.5065 17.0001L10.094 6.58758C9.76342 6.25703 9.59814 5.84383 9.59814 5.348C9.59814 4.85216 9.77523 4.42716 10.1294 4.073C10.4836 3.71883 10.9029 3.54175 11.3874 3.54175C11.8719 3.54175 12.2908 3.71883 12.644 4.073L24.544 16.0084C24.6856 16.1501 24.7862 16.3036 24.8457 16.4688C24.9052 16.6341 24.9345 16.8112 24.9336 17.0001C24.9336 17.189 24.9038 17.3661 24.8443 17.5313C24.7848 17.6966 24.6847 17.8501 24.544 17.9917L12.6086 29.9272C12.278 30.2577 11.8705 30.423 11.386 30.423C10.9015 30.423 10.4826 30.2459 10.1294 29.8917Z" fill="#1280E5"/>
</svg>
