<svg width="48" height="42" viewBox="0 0 48 42" fill="none" xmlns="http://www.w3.org/2000/svg">
<path d="M46.5 35H6V1.75C6 0.783125 5.32875 0 4.5 0H1.5C0.67125 0 0 0.783125 0 1.75V38.5C0 40.4327 1.34344 42 3 42H46.5C47.3288 42 48 41.2169 48 40.25V36.75C48 35.7831 47.3288 35 46.5 35ZM43.5 3.5H32.4319C30.4275 3.5 29.4234 6.32734 30.8409 7.98109L33.8784 11.5248L27 19.5508L20.1216 11.5259C18.9497 10.1588 17.0503 10.1588 15.8794 11.5259L9.43969 19.0389C8.85375 19.7225 8.85375 20.8305 9.43969 21.5141L11.5603 23.9881C12.1462 24.6717 13.0959 24.6717 13.6819 23.9881L18 18.9492L24.8784 26.9741C26.0503 28.3412 27.9497 28.3412 29.1206 26.9741L38.1206 16.4741L41.1581 20.0178C42.5756 21.6716 44.9991 20.5002 44.9991 18.1617V5.25C45 4.28312 44.3288 3.5 43.5 3.5Z" fill="url(#paint0_linear_16_187)"/>
<defs>
<linearGradient id="paint0_linear_16_187" x1="24" y1="0" x2="24" y2="78.75" gradientUnits="userSpaceOnUse">
<stop stop-color="#008CF0"/>
<stop offset="1" stop-color="white"/>
</linearGradient>
</defs>
</svg>
