<svg width="48" height="48" viewBox="0 0 48 48" fill="none" xmlns="http://www.w3.org/2000/svg">
<path d="M16.2785 42.5945C16.2795 43.1842 16.4591 43.7617 16.7962 44.2529L18.447 46.6613C18.729 47.073 19.1115 47.4106 19.5604 47.6442C20.0093 47.8778 20.5108 48 21.0202 48H26.9808C27.4902 48 27.9916 47.8778 28.4406 47.6442C28.8895 47.4106 29.272 47.073 29.554 46.6613L31.2047 44.2529C31.5417 43.7616 31.7218 43.1847 31.7224 42.5945L31.7263 38.9993H16.2737L16.2785 42.5945ZM7 16.4997C7 20.6593 8.58892 24.4542 11.2075 27.3539C12.8032 29.121 15.2991 32.8128 16.2505 35.9271C16.2544 35.9515 16.2573 35.9759 16.2611 36.0003H31.7389C31.7427 35.9759 31.7456 35.9524 31.7495 35.9271C32.7009 32.8128 35.1968 29.121 36.7925 27.3539C39.4111 24.4542 41 20.6593 41 16.4997C41 7.36961 33.3606 -0.0280445 23.9469 7.99275e-05C14.0936 0.0291418 7 7.77835 7 16.4997ZM24 8.99989C19.7394 8.99989 16.2727 12.3645 16.2727 16.4997C16.2727 17.3285 15.5811 17.9997 14.7273 17.9997C13.8734 17.9997 13.1818 17.3285 13.1818 16.4997C13.1818 10.7099 18.0345 5.99995 24 5.99995C24.8539 5.99995 25.5455 6.67119 25.5455 7.49992C25.5455 8.32865 24.8539 8.99989 24 8.99989Z" fill="url(#paint0_linear_16_182)"/>
<defs>
<linearGradient id="paint0_linear_16_182" x1="24" y1="0" x2="24" y2="90" gradientUnits="userSpaceOnUse">
<stop stop-color="#008CF0"/>
<stop offset="1" stop-color="white"/>
</linearGradient>
</defs>
</svg>
