<svg width="21" height="21" viewBox="0 0 21 21" fill="none" xmlns="http://www.w3.org/2000/svg">
<path d="M8.69633 6.20043L3.50084 11.4052C3.17239 11.7371 2.76153 11.9109 2.26826 11.9265C1.77498 11.9422 1.34979 11.7684 0.992675 11.4052C0.664224 11.0733 0.5 10.6509 0.5 10.1379C0.5 9.625 0.664224 9.20258 0.992675 8.87069L9.23379 0.543103C9.5921 0.181034 10.0101 0 10.4879 0C10.9656 0 11.3836 0.181034 11.742 0.543103L19.9831 8.87069C20.3115 9.20258 20.4835 9.61776 20.499 10.1162C20.5146 10.6147 20.3426 11.0443 19.9831 11.4052C19.6546 11.7371 19.2366 11.903 18.729 11.903C18.2214 11.903 17.8034 11.7371 17.4749 11.4052L12.2794 6.20043V19.1897C12.2794 19.7026 12.1074 20.1328 11.7635 20.4804C11.4195 20.828 10.9943 21.0012 10.4879 21C9.98027 21 9.55448 20.8262 9.2105 20.4786C8.86652 20.131 8.69513 19.7014 8.69633 19.1897V6.20043Z" fill="#1280E5"/>
</svg>
